<svg version="1.2" xmlns="http://www.w3.org/2000/svg" viewBox="0 0 337 501" width="337" height="501"><style>.a{display:none}.b{fill:#f5feff}</style><path fill-rule="evenodd" class="a" d="m338 360c0 47.3 0 94.5 0 142-48.7 0-97.4 0-146.8-0.4 5.1-1.7 11-3.1 16.9-4.6 3.7-1 7.4-2.3 11.1-3.5q-0.2-0.8-0.4-1.6c-5.7 0.7-11.3 1.8-16.9 2-14.5 0.7-28.8-0.4-42.9-3.9-24.7-6-46.3-17.8-64.7-35.3-13.6-12.9-24.1-27.9-31.6-45.2-6.4-14.9-9.8-30.4-10.5-46.4-0.4-7.5 1-15 1.8-22.5 2.9-26.3 17.3-45.5 38.2-60.1 7.7-5.3 16.6-8.9 25.1-13.2 4.8-2.4 5.1-2.5 1.3-6.1-2.7-2.7-5.7-5.1-8.1-7.3 23.9-16 47.5-32 71.2-47.9 23.5-15.8 45.7-33.5 66.3-52.9 13.5-12.6 25.7-26.6 37.8-40.5 13.4-15.4 23.9-32.8 32.2-51.5 8.7-19.2 13.8-39.4 17-60.1q1.5 0 3 0c0 104.4 0 208.7-0.4 313.8-0.7 0.1-1.4-0.5-1.6-1.2-1.7-7-3.2-14.1-5.1-21.1-0.4-1.7-1.8-3.2-2.7-4.8 5.7 47.8-5.9 89.5-40.2 123.7-34 34-75.1 47.1-122.5 39.5-47.2-7.6-80.7-34.9-104.3-76 2.5 9.2 5.4 18.1 9.6 26.2 9.8 19.2 23.1 35.7 40.5 48.8 23.3 17.7 49.7 27.4 78.7 28.8 12.3 0.6 25.1-0.3 37.1-3 31-7 57.4-22.4 77.9-47.2 16.4-19.6 27.1-41.7 31.1-67 0.1-0.6 1.2-1 1.9-1.5zm-96-127.7q-0.1-1-0.2-2-0.4 0-0.7 0c-0.1 0.5-0.1 1.1-0.8 1.9-0.7 1.8-1.4 3.6-2 5.2-2.7 0.8-5.6 1.7-9.3 2.8 1.2 1.4 1.7 2.3 2.1 2.3 5.2-0.2 7.7 2.1 7.4 7.4 0 0.7 1.4 1.4 2.1 2.1 0.8-0.9 2.4-1.9 2.3-2.6-1.1-6.6 3.3-6.7 8-6.4 0.6-7-5-4-7.6-5.3-0.5-1.6-1-3.2-1.3-5.4zm-29.9 156.1q-1-3.9-2-7.7-1.2 0.1-2.4 0.2-0.5 3.9-1.1 7.8c-2.4 0.5-4.9 1.1-7.6 1.7 0 5.9 5.5 3.1 7 5.6q1.7 3.5 3.5 7 1.8-3.5 3.5-7.1c1.3-2.6 7.1 0.6 7-5.6-2.6-0.5-5-0.9-7.9-1.9zm-111.6-68.4c0.8 2.6 1.5 5.1 2.3 7.7q1.6 0 4.3 0c0-2.6 0-5 0-6.3 3.1-1.5 5.5-2.7 7.9-3.8-2.5-1.3-4.9-2.6-8-4.2 0-0.4 0.3-1.9-0.1-3.3-0.4-1.2-1.6-2.1-2.4-3.1-0.9 1.2-2 2.3-2.4 3.6-0.5 1.3-0.3 2.8-0.3 4.4-1.7 0-3.1-0.3-4.3 0.1-1.3 0.5-2.3 1.6-3.5 2.5 1.2 0.8 2.3 1.7 3.6 2.4 0.5 0.2 1.3 0 2.9 0zm171.5-7.6c-0.2-6.1-5.3-2-7.6-3.8-0.6-2.5-1.2-5.1-1.8-7.7-5.9 0.6-2.4 5.4-3.2 6.6-3.5 1.6-8 2.7-8 3.8 0.1 5.1 5 1.3 7.6 3.4 0 2.1 0 4.6 0 7.1 7.5 1.2 3.9-4.8 5.2-7.3 2.5-0.5 4.9-1 7.8-2.1zm-41.2 58.3c0.1 0.7 0.1 1.8 0.4 1.9 2.2 0.8 4.4 1.4 6.7 2.1 0.3 7.2 0.4 7.5 5 6.6q0.1-3.6 0.3-7.2c7.9-0.2 7.9-0.2 7.2-5.3-2.4 0-4.8 0-7 0-1.4-2.8 1.7-7.4-4.1-7.9-0.6 2.8-1.2 5.4-1.8 7.6-2.3 0.5-4.4 1-6.7 2.2zm-53.8-43.1c0.9 6.1-4.4 3.6-6.8 4.7-1.3 6.6 4.2 3.9 6.6 5 0.4 7.7 0.4 7.7 5.4 7.1q0-3.6 0-7.3c3.4-0.4 8 1.1 7.7-5.7-5.6 2.3-8-0.6-9.7-4.8-1-2.3-2.3-3.1-3.2 1zm-52.6 48.5c-0.4 4.7-4.6 3.5-7.3 4.2-0.9 6.2 4.4 3.8 6.8 5.1 0.4 3.4-0.4 7.4 5.1 7.7 0-2 0-3.1 0-4.3q0-1.7 0-3.4c7.6-0.9 7.8-1.1 7.6-5.3-1.2 0-2.6 0.1-3.8-0.2-1.2-0.3-2.4-0.9-3.6-1.4-0.2-1.7-0.4-3.4-0.7-6.3-1.8 1.7-2.7 2.5-4.1 3.9zm50.6-116.4q0 2.6 0 5.2c-8.2 0.2-8.2 0.2-7.3 5.3 2.4 0 4.8 0 6.8 0 0.5 3.3 1 6.1 1.4 8.9q1.1 0 2.2 0c0.5-2.9 0.9-5.9 1.4-9.2q3.7 0 7.3 0c1.2-7.5-5-3.7-7.8-5.5 0-1.7 0.2-3.5-0.1-5.2-0.2-0.9-1.5-1.5-2.3-2.2-0.5 0.6-1.1 1.2-1.6 2.7z"/><path class="b" d="m334.5 1c-2.7 20.7-7.8 40.9-16.5 60.1-8.3 18.7-18.8 36.1-32.2 51.5-12.1 13.9-24.3 27.9-37.8 40.5-20.6 19.4-42.8 37.1-66.3 52.9-23.7 15.9-47.3 31.9-71.2 47.9 2.4 2.2 5.4 4.6 8.1 7.3 3.8 3.6 3.5 3.7-1.3 6.1-8.5 4.3-17.4 7.9-25.1 13.2-20.9 14.6-35.3 33.8-38.2 60.1-0.8 7.5-2.2 15-1.8 22.5 0.7 16 4.1 31.5 10.5 46.4 7.5 17.3 18 32.3 31.6 45.2 18.4 17.5 40 29.3 64.7 35.3 14.1 3.5 28.4 4.6 42.9 3.9 5.6-0.2 11.2-1.3 16.9-2q0.2 0.8 0.4 1.6c-3.7 1.2-7.4 2.5-11.1 3.5-5.9 1.5-11.8 2.9-17.4 4.6-12.7 0.4-25.7 0.4-38.9 0-2.5-0.8-4.9-1.1-7.2-1.8-11.4-3.5-23.1-6.7-34.3-10.9-14.5-5.4-27.4-13.3-37.7-25.5-11.5-13.8-21.1-28.5-27.9-45.1-6.6-16.4-10.2-33.4-10.6-51-0.2-7.1 0.2-14.2 1-21.2 1.1-9.7 2.3-19.4 4.4-28.9 4.7-21.9 14.4-41.8 25.9-60.8 17.1-28.6 37.8-54.5 60.6-78.7 8.9-9.5 18.6-18.5 28.2-27.3 6-5.5 12.4-10.5 19-15.4 10.4-7.6 21-14.9 31.8-22.6 0.8-0.4 1.3-0.5 1.9-0.7q-0.2-0.4-0.3-0.9c-0.9 0.4-1.8 0.7-3.1 1.2-6.7 2.3-13.1 4.4-19.2 7-26.8 11.6-49.7 29.1-70.7 49.1-7.5 7.1-14.4 14.9-21 22.9-9.1 11.2-18.2 22.5-26.5 34.2-19.9 28-36.3 58.1-51.1 89-4.6 9.6-9.3 19.2-14 28.8 0-16.7 0-33.4 0.4-50.2 0.8-1.5 1.4-2.9 1.6-4.2 0.7-8.7 0.9-17.4 2.1-26 1.9-13.1 4.6-26.1 6.9-39.2 3.9-22.2 10.6-43.7 20.5-63.9 6.1-12.5 14.2-24.2 22.4-35.5 4.2-6 10.5-10.5 15.8-15.7q0.7 0.5 1.4 1c0 16.7 0 33.5 0 51 4.2-7 7.9-13.2 11.5-19.4 10.9-19 23.4-37.1 38.3-53 11.7-12.4 24.5-24 37.8-34.8 19-15.5 40.6-26.6 63.5-35 21.3-7.8 43.2-13.2 65.8-15.2 0.7 0 1.3-1.2 2-1.9 14.4 0 28.7 0 43.5 0z"/><path class="a" d="m290.5 1c-0.2 0.7-0.8 1.9-1.5 1.9-22.6 2-44.5 7.4-65.8 15.2-22.9 8.4-44.5 19.5-63.5 35-13.3 10.8-26.1 22.4-37.8 34.8-14.9 15.9-27.4 34-38.3 53-3.6 6.2-7.3 12.4-11.5 19.4 0-17.5 0-34.3 0-51q-0.7-0.5-1.4-1c-5.3 5.2-11.6 9.7-15.8 15.7-8.2 11.3-16.3 23-22.4 35.5-9.9 20.2-16.6 41.7-20.5 63.9-2.3 13.1-5 26.1-6.9 39.2-1.2 8.6-1.4 17.3-2.1 26-0.2 1.3-0.8 2.7-1.6 3.7-0.4-97.2-0.4-194.2-0.4-291.3 96.4 0 192.7 0 289.5 0z"/><path class="a" d="m204.7 112.6c-10.5 7.5-21.1 14.8-31.5 22.4-6.6 4.9-13 9.9-19 15.4-9.6 8.8-19.3 17.8-28.2 27.3-22.8 24.2-43.5 50.1-60.6 78.7-11.5 19-21.2 38.9-25.9 60.8-2.1 9.5-3.3 19.2-4.4 28.9-0.8 7-1.2 14.1-1 21.2 0.4 17.6 4 34.6 10.6 51 6.8 16.6 16.4 31.3 27.9 45.1 10.3 12.2 23.2 20.1 37.7 25.5 11.2 4.2 22.9 7.4 34.3 10.9 2.3 0.7 4.7 1 6.7 1.8-50.2 0.4-100.2 0.4-150.3 0.4 0-52.7 0-105.4 0-158.5 4.7-10.1 9.4-19.7 14-29.3 14.8-30.9 31.2-61 51.1-89 8.3-11.7 17.4-23 26.5-34.2 6.6-8 13.5-15.8 21-22.9 21-20 43.9-37.5 70.7-49.1 6.1-2.6 12.5-4.7 19.4-6.9 0.8 0.3 0.9 0.4 1 0.5z"/><path class="b" d="m338 359.5c-0.7 1-1.8 1.4-1.9 2-4 25.3-14.7 47.4-31.1 67-20.5 24.8-46.9 40.2-77.9 47.2-12 2.7-24.8 3.6-37.1 3-29-1.4-55.4-11.1-78.7-28.8-17.4-13.1-30.7-29.6-40.5-48.8-4.2-8.1-7.1-17-9.6-26.2 23.6 41.1 57.1 68.4 104.3 76 47.4 7.6 88.5-5.5 122.5-39.5 34.3-34.2 45.9-75.9 40.2-123.7 0.9 1.6 2.3 3.1 2.7 4.8 1.9 7 3.4 14.1 5.1 21.1 0.2 0.7 0.9 1.3 1.6 1.7 0.4 14.4 0.4 29.1 0.4 44.2z"/><path class="b" d="m212.4 388.7c2.6 0.7 5 1.1 7.6 1.6 0.1 6.2-5.7 3-7 5.6q-1.7 3.6-3.5 7.1-1.8-3.5-3.5-7c-1.5-2.5-7 0.3-7-5.6 2.7-0.6 5.2-1.2 7.6-1.7q0.6-3.9 1.1-7.8 1.2-0.1 2.4-0.2c0.6 2.5 1.3 5.1 2.3 8z"/><path class="b" d="m100 320c-1.1 0-1.9 0.2-2.4 0-1.3-0.7-2.4-1.6-3.6-2.4 1.2-0.9 2.2-2 3.5-2.5 1.2-0.4 2.6-0.1 4.3-0.1 0-1.6-0.2-3.1 0.3-4.4 0.4-1.3 1.5-2.4 2.4-3.6 0.8 1 2 1.9 2.4 3.1 0.4 1.4 0.1 2.9 0.1 3.3 3.1 1.6 5.5 2.9 8 4.2-2.4 1.1-4.8 2.3-7.9 3.8 0 1.3 0 3.7 0 6.3q-2.7 0-4.3 0c-0.8-2.6-1.5-5.1-2.8-7.7z"/><path class="b" d="m271.7 312.7c-2.6 0.8-5 1.3-7.5 1.8-1.3 2.5 2.3 8.5-5.2 7.3 0-2.5 0-5 0-7.1-2.6-2.1-7.5 1.7-7.6-3.4 0-1.1 4.5-2.2 8-3.8 0.8-1.2-2.7-6 3.2-6.6 0.6 2.6 1.2 5.2 1.8 7.7 2.3 1.8 7.4-2.3 7.3 4.1z"/><path class="b" d="m230.9 370.4c2.2-0.9 4.3-1.4 6.6-1.9 0.6-2.2 1.2-4.8 1.8-7.6 5.8 0.5 2.7 5.1 4.1 7.9 2.2 0 4.6 0 7 0 0.7 5.1 0.7 5.1-7.2 5.3q-0.2 3.6-0.3 7.2c-4.6 0.9-4.7 0.6-5-6.6-2.3-0.7-4.5-1.3-6.7-2.1-0.3-0.1-0.3-1.2-0.3-2.2z"/><path class="b" d="m177 327.2c0.9-3.7 2.2-2.9 3.2-0.6 1.7 4.2 4.1 7.1 9.7 4.8 0.3 6.8-4.3 5.3-7.7 5.7q0 3.7 0 7.3c-5 0.6-5 0.6-5.4-7.1-2.4-1.1-7.9 1.6-6.6-5 2.4-1.1 7.7 1.4 6.8-5.1z"/><path class="b" d="m124.7 375.8c1.1-1.1 2-1.9 3.8-3.6 0.3 2.9 0.5 4.6 0.7 6.3 1.2 0.5 2.4 1.1 3.6 1.4 1.2 0.3 2.6 0.2 3.8 0.2 0.2 4.2 0 4.4-7.6 5.3q0 1.7 0 3.4c0 1.2 0 2.3 0 4.3-5.5-0.3-4.7-4.3-5.1-7.7-2.4-1.3-7.7 1.1-6.8-5.1 2.7-0.7 6.9 0.5 7.6-4.5z"/><path class="b" d="m175 259.3c0.5-1.1 1.1-1.7 1.6-2.3 0.8 0.7 2.1 1.3 2.3 2.2 0.3 1.7 0.1 3.5 0.1 5.2 2.8 1.8 9-2 7.8 5.5q-3.6 0-7.3 0c-0.5 3.3-0.9 6.3-1.4 9.2q-1.1 0-2.2 0c-0.4-2.8-0.9-5.6-1.4-8.9-2 0-4.4 0-6.8 0-0.9-5.1-0.9-5.1 7.3-5.3 0-1.7 0-3.4 0-5.6z"/><path class="b" d="m241.8 233c0.5 1.5 1 3.1 1.5 4.7 2.6 1.3 8.2-1.7 7.6 5.3-4.7-0.3-9.1-0.2-8 6.4 0.1 0.7-1.5 1.7-2.3 2.6-0.7-0.7-2.1-1.4-2.1-2.1 0.3-5.3-2.2-7.6-7.4-7.4-0.4 0-0.9-0.9-2.1-2.3 3.7-1.1 6.6-2 9.3-2.8 0.6-1.6 1.3-3.4 2.4-5.1 0.6 0.3 0.8 0.5 1.1 0.7z"/><path class="b" d="m241.9 232.6c-0.4 0.2-0.6 0-0.9-0.5 0-0.7 0-1.3 0.1-1.8q0.3 0 0.7 0c0.1 0.7 0.1 1.3 0.1 2.3z"/><path class="a" d="m204.1 112.1c0.7-0.6 1.6-0.9 2.5-1.3q0.1 0.5 0.3 0.9c-0.6 0.2-1.1 0.3-1.9 0.7-0.4 0.1-0.5 0-0.9-0.3z"/></svg>