<svg xmlns="http://www.w3.org/2000/svg" version="1.0" preserveAspectRatio="xMidYMid meet" viewBox="0.1 2.92 23.8 18.08">

<g transform="translate(0.000000,24.000000) scale(0.100000,-0.100000)" fill="#FFFFFF" stroke="none">
<path d="M116 173 c-15 -107 -17 -143 -8 -143 10 0 15 22 28 128 7 60 -11 74 -20 15z"/>
<path d="M22 148 l-21 -23 24 -28 c13 -15 30 -27 36 -27 7 0 2 11 -11 25 l-23 25 23 25 c17 18 20 25 8 25 -8 0 -24 -10 -36 -22z"/>
<path d="M190 145 l23 -25 -23 -25 c-13 -14 -18 -25 -11 -25 6 0 23 12 36 28 l24 27 -21 23 c-12 12 -28 22 -36 22 -12 0 -9 -7 8 -25z"/>
</g>
</svg>